<svg xmlns="http://www.w3.org/2000/svg" viewBox="0 0 800 500" fill="none">
  <rect width="800" height="500" fill="#cfdce6"/>
  <path d="M0 180 C120 220 180 140 260 190 C340 240 380 120 460 170 C540 220 600 140 700 180 C760 204 800 190 800 190 V500 H0 Z" fill="#345d6e"/>
  <path d="M0 260 C140 300 200 220 290 270 C380 320 430 210 520 260 C610 310 670 240 800 280 V500 H0 Z" fill="#1b4f57"/>
  <ellipse cx="250" cy="340" rx="90" ry="48" fill="#0b3b40" opacity="0.7"/>
  <ellipse cx="520" cy="360" rx="120" ry="58" fill="#0b3b40" opacity="0.55"/>
  <circle cx="180" cy="120" r="10" fill="#e8dcc8"/>
  <circle cx="420" cy="90" r="7" fill="#e8dcc8"/>
  <circle cx="640" cy="130" r="9" fill="#e8dcc8"/>
</svg>
